<?xml version="1.0" standalone="no"?><!DOCTYPE svg PUBLIC "-//W3C//DTD SVG 1.1//EN" "http://www.w3.org/Graphics/SVG/1.1/DTD/svg11.dtd" [<!ENTITY nbsp " ">]><svg data-noselect="" viewBox="121.76404571533001 147.9999999999965 400 300" width="400" ref="svg_canvas" height="300" preserveAspectRatio="none" version="1.1" xmlns="http://www.w3.org/2000/svg" style="background: rgba(255, 255, 255, 0);">
    <def></def>
    <g id="shape_AjwXCJgVSQ" ref="shape_AjwXCJgVSQ" key="shape_AjwXCJgVSQ" transform="translate(220,248.0321714893) rotate(0,80,49.967828510696) scale(1,1)" style="cursor:move;display:inline;opacity:1;" filter="">
            <g style="display:inline"><rect fill="rgba(0,0,0,0)" width="180" height="119.935657021393" x="-10" y="-10"></rect><svg version="1.1" id="图层_1" xmlns="http://www.w3.org/2000/svg" xmlns:xlink="http://www.w3.org/1999/xlink" x="0px" y="0px" width="160" height="99.935657021393" viewBox="10.189589500427246 43.904483795166016 179.6204071044922 112.19052124023438" enable-background="new 0 0 200 200" xml:space="preserve" preserveAspectRatio="none" class="style-removed" data-parent="shape_AjwXCJgVSQ">
<g>
	<path fill="#246fdd" d="M106.321,89.494c0,0,21.712-23.689,49.111-19.623c20.564,3.052,29.926,14.137,34.378,20.14H176.37
		c0,0-9.943-9.084-23.78-10.899C140.013,77.462,129.843,78.121,106.321,89.494z" stroke-width="0"></path>
	<path fill="#246fdd" d="M147.161,71.716c0,0-5.801-22.574-33.028-27.054S61.92,55.92,43.31,82.687l22.517-4.021
		c0,0,19.354-29.195,47.101-24.24c16.083,2.872,24.699,10.109,27.916,18.496L147.161,71.716z" stroke-width="0"></path>
	<path fill="#24dd7f" d="M62.38,83.893c0,0-46.698,7.782-51.696,38.255c-4.136,25.216,18.611,33.947,33.43,33.947
		c18.036,0,112.698,0,112.698,0l1.206-5.687c0,0-71.397,0.324-101.38,0c-15.968-0.172-28.147-4.996-28.147-22.574
		c0-14.992,12.867-26.502,29.065-32.034L62.38,83.893z" stroke-width="0"></path>
</g>
</svg></g>
        </g><g id="shape_W7YDZ35Q8m" ref="shape_W7YDZ35Q8m" key="shape_W7YDZ35Q8m" transform="translate(202.52809143066003,111.2349152832) rotate(0,206.27399295228,203.822) scale(1,1)" style="cursor:move;display:inline;opacity:1;" filter="">
            <g style="display:inline"><svg xmlns="http://www.w3.org/2000/svg" version="1.1" xmlns:xlink="http://www.w3.org/1999/xlink" width="395" height="407.644" viewBox="0 0 395 407.644" preserveAspectRatio="none" data-parent="shape_W7YDZ35Q8m"><rect fill="rgba(0,0,0,0)" width="163" height="58" x="58" y="174.822"></rect><g data-width="162.28400000000002" transform="translate(58, 0)"><path d="M20.94-38.92L20.94-38.92Q26.74-38.92 31.15-36.95L31.15-36.95Q36.31-34.57 38.40-29L38.40-29Q40.02-24.65 40.02-18.79L40.02-18.79Q40.02-12.88 38.05-8.53L38.05-8.53Q35.55-3.36 30.39-1.28L30.39-1.28Q26.56 0.23 21.58 0.23L21.58 0.23Q15.02 0.23 10.21-2.20L10.21-2.20Q6.15-4.23 4.00-8.58Q1.86-12.93 1.86-19.14L1.86-19.14Q1.86-30.22 7.37-34.92L7.37-34.92Q12.01-38.86 20.94-38.92ZM21.00-32.42L21.00-32.42Q15.31-32.42 12.88-28.71L12.88-28.71Q10.90-25.81 10.90-19.37L10.90-19.37Q10.90-12.59 13.34-9.40L13.34-9.40Q15.78-6.26 21.05-6.26L21.05-6.26Q26.16-6.26 28.57-9.45Q30.97-12.64 30.97-19.31L30.97-19.31Q30.97-25.40 29-28.59L29-28.59Q26.74-32.36 21.00-32.42Z" transform="translate(0 223.822) skewX(-14)" fill="#246fdd" stroke="#246fdd" stroke-width="0.097" data-glyph-w="41.876000000000005" data-glyph-h="58" data-glyph-ascender="49.822" data-glyph-descender="-8.178"></path><path d="M20.94-38.92L20.94-38.92Q26.74-38.92 31.15-36.95L31.15-36.95Q36.31-34.57 38.40-29L38.40-29Q40.02-24.65 40.02-18.79L40.02-18.79Q40.02-12.88 38.05-8.53L38.05-8.53Q35.55-3.36 30.39-1.28L30.39-1.28Q26.56 0.23 21.58 0.23L21.58 0.23Q15.02 0.23 10.21-2.20L10.21-2.20Q6.15-4.23 4.00-8.58Q1.86-12.93 1.86-19.14L1.86-19.14Q1.86-30.22 7.37-34.92L7.37-34.92Q12.01-38.86 20.94-38.92ZM21.00-32.42L21.00-32.42Q15.31-32.42 12.88-28.71L12.88-28.71Q10.90-25.81 10.90-19.37L10.90-19.37Q10.90-12.59 13.34-9.40L13.34-9.40Q15.78-6.26 21.05-6.26L21.05-6.26Q26.16-6.26 28.57-9.45Q30.97-12.64 30.97-19.31L30.97-19.31Q30.97-25.40 29-28.59L29-28.59Q26.74-32.36 21.00-32.42Z" transform="translate(41.876000000000005 223.822) skewX(-14)" fill="#246fdd" stroke="#246fdd" stroke-width="0.097" data-glyph-w="41.876000000000005" data-glyph-h="58" data-glyph-ascender="49.822" data-glyph-descender="-8.178"></path><path d="M23.20 0L3.77 0L3.77-6.90L21.46-6.90Q25.69-6.90 27.09-7.71L27.09-7.71Q29.12-8.93 29.12-11.37L29.12-11.37Q29.12-14.21 26.74-15.49L26.74-15.49Q25.40-16.24 22.45-16.24L22.45-16.24L15.25-16.24Q8.70-16.24 5.80-18.62L5.80-18.62Q4.00-20.13 2.99-22.39Q1.97-24.65 1.97-27.26L1.97-27.26Q1.97-31.32 4.35-34.68L4.35-34.68Q6.67-37.93 11.77-38.51L11.77-38.51Q13.51-38.69 16.94-38.69L16.94-38.69L36.13-38.69L36.13-31.78L18.79-31.78Q14.91-31.73 13.63-31.44L13.63-31.44Q11.02-30.80 11.02-27.49L11.02-27.49Q11.02-24.71 13.22-23.78L13.22-23.78Q14.67-23.08 18.10-23.08L18.10-23.08L24.30-23.08Q29.06-23.08 31.38-22.27L31.38-22.27Q35.50-20.88 37.06-17.40L37.06-17.40Q38.28-14.62 38.28-11.43L38.28-11.43Q38.28-7.89 36.66-5.10L36.66-5.10Q34.39-1.16 29.87-0.35L29.87-0.35Q27.67 0 23.20 0L23.20 0Z" transform="translate(83.75200000000001 223.822) skewX(-14)" fill="#246fdd" stroke="#246fdd" stroke-width="0.097" data-glyph-w="40.31" data-glyph-h="58" data-glyph-ascender="49.822" data-glyph-descender="-8.178"></path><path d="M3.94-38.69L12.18-38.69L12.18 0L3.94 0L3.94-38.69ZM26.51 0L12.47-19.55L27.26-38.69L38.11-38.69L21.92-19.55L37.35 0L26.51 0Z" transform="translate(124.06200000000001 223.822) skewX(-14)" fill="#246fdd" stroke="#246fdd" stroke-width="0.097" data-glyph-w="38.222" data-glyph-h="58" data-glyph-ascender="49.822" data-glyph-descender="-8.178"></path></g></svg></g>
        </g>
  </svg>