<?xml version="1.0" standalone="no"?><!DOCTYPE svg PUBLIC "-//W3C//DTD SVG 1.1//EN" "http://www.w3.org/Graphics/SVG/1.1/DTD/svg11.dtd" [<!ENTITY nbsp " ">]><svg data-noselect="" viewBox="140 154.8550082452625 423.52809143065997 317.646068572995" width="423.52809143065997" ref="svg_canvas" height="317.646068572995" preserveAspectRatio="none" version="1.1" xmlns="http://www.w3.org/2000/svg" style="background: rgba(255, 255, 255, 0);">
    <def></def>
    <g id="shape_AjwXCJgVSQ" ref="shape_AjwXCJgVSQ" key="shape_AjwXCJgVSQ" transform="translate(220,248.0321714893) rotate(0,80,49.967828510696) scale(1,1)" style="cursor:move;display:inline;opacity:1;" filter="">
            <g style="display:inline"><rect fill="rgba(0,0,0,0)" width="180" height="119.935657021393" x="-10" y="-10"></rect><svg version="1.1" id="图层_1" xmlns="http://www.w3.org/2000/svg" xmlns:xlink="http://www.w3.org/1999/xlink" x="0px" y="0px" width="160" height="99.935657021393" viewBox="10.189589500427246 43.904483795166016 179.6204071044922 112.19052124023438" enable-background="new 0 0 200 200" xml:space="preserve" preserveAspectRatio="none" class="style-removed" data-parent="shape_AjwXCJgVSQ">
<g>
	<path fill="#246fdd" d="M106.321,89.494c0,0,21.712-23.689,49.111-19.623c20.564,3.052,29.926,14.137,34.378,20.14H176.37
		c0,0-9.943-9.084-23.78-10.899C140.013,77.462,129.843,78.121,106.321,89.494z" stroke-width="0"></path>
	<path fill="#246fdd" d="M147.161,71.716c0,0-5.801-22.574-33.028-27.054S61.92,55.92,43.31,82.687l22.517-4.021
		c0,0,19.354-29.195,47.101-24.24c16.083,2.872,24.699,10.109,27.916,18.496L147.161,71.716z" stroke-width="0"></path>
	<path fill="#24dd7f" d="M62.38,83.893c0,0-46.698,7.782-51.696,38.255c-4.136,25.216,18.611,33.947,33.43,33.947
		c18.036,0,112.698,0,112.698,0l1.206-5.687c0,0-71.397,0.324-101.38,0c-15.968-0.172-28.147-4.996-28.147-22.574
		c0-14.992,12.867-26.502,29.065-32.034L62.38,83.893z" stroke-width="0"></path>
</g>
</svg></g>
        </g><g id="shape_W7YDZ35Q8m" ref="shape_W7YDZ35Q8m" key="shape_W7YDZ35Q8m" transform="translate(202.52809143066003,112.0169152832) rotate(0,206.27399295228,203.04) scale(1,1)" style="cursor:move;display:inline;opacity:1;" filter="">
            <g style="display:inline"><svg xmlns="http://www.w3.org/2000/svg" version="1.1" xmlns:xlink="http://www.w3.org/1999/xlink" width="455" height="406.08" viewBox="0 0 455 406.08" preserveAspectRatio="none" data-parent="shape_W7YDZ35Q8m"><rect fill="rgba(0,0,0,0)" width="223" height="58" x="58" y="174.04"></rect><g data-width="222.72000000000003" transform="translate(58, 0)"><path d="M15.14-14.85L15.14-39.03L8.47-39.03L8.47-14.85L15.14-14.85ZM19.14-43.04L19.14-10.85L8.47-10.85L8.47-5.34L4.47-5.34L4.47-43.04L19.14-43.04ZM48.84-37.12L48.84-42.69L26.80-42.69L26.80-37.12L48.84-37.12ZM41.88-6.73L41.88-0.35L55.27-0.35L55.27 3.19L24.01 3.19L24.01-0.35L37.93-0.35L37.93-6.73L27.55-6.73L27.55-10.15L37.93-10.15L37.93-15.54Q34.51-15.25 32.65-15.05Q30.80-14.85 29.96-14.70Q29.12-14.56 28.71-14.38L28.71-14.38Q28.59-15.08 28.25-16.21Q27.90-17.34 27.49-18.10L27.49-18.10Q28.71-18.44 30.22-20.01L30.22-20.01Q30.86-20.59 32.22-22.27Q33.58-23.95 35.09-26.22L35.09-26.22L26.80-26.22Q26.85-18.85 25.35-10.47Q23.84-2.09 19.43 4.64L19.43 4.64Q18.85 4.06 17.89 3.33Q16.94 2.61 16.12 2.26L16.12 2.26Q19.14-2.15 20.59-7.42Q22.04-12.70 22.45-18.07Q22.85-23.43 22.85-27.96L22.85-27.96L22.85-46.23L52.90-46.23L52.90-33.64L26.80-33.64L26.80-29.64L55.04-29.64L55.04-26.22L39.79-26.22Q36.89-22.10 33.70-18.73L33.70-18.73L46.81-19.60Q45.07-21.87 43.21-23.72L43.21-23.72L46.17-25.11Q48.37-22.97 50.34-20.45Q52.32-17.92 53.36-15.83L53.36-15.83L50.17-14.21Q49.71-15.20 49.01-16.41L49.01-16.41Q46.23-16.18 43.91-16.01L43.91-16.01Q40.83-15.78 38.63-15.60L38.63-15.60L41.88-15.60L41.88-10.15L53.01-10.15L53.01-6.73L41.88-6.73Z" transform="translate(0 225.04) skewX(-14)" fill="#246fdd" stroke="#246fdd" stroke-width="0.097" data-glyph-w="58" data-glyph-h="58" data-glyph-ascender="51.04" data-glyph-descender="-6.96"></path><path d="M15.14-14.85L15.14-39.03L8.47-39.03L8.47-14.85L15.14-14.85ZM19.14-43.04L19.14-10.85L8.47-10.85L8.47-5.34L4.47-5.34L4.47-43.04L19.14-43.04ZM48.84-37.12L48.84-42.69L26.80-42.69L26.80-37.12L48.84-37.12ZM41.88-6.73L41.88-0.35L55.27-0.35L55.27 3.19L24.01 3.19L24.01-0.35L37.93-0.35L37.93-6.73L27.55-6.73L27.55-10.15L37.93-10.15L37.93-15.54Q34.51-15.25 32.65-15.05Q30.80-14.85 29.96-14.70Q29.12-14.56 28.71-14.38L28.71-14.38Q28.59-15.08 28.25-16.21Q27.90-17.34 27.49-18.10L27.49-18.10Q28.71-18.44 30.22-20.01L30.22-20.01Q30.86-20.59 32.22-22.27Q33.58-23.95 35.09-26.22L35.09-26.22L26.80-26.22Q26.85-18.85 25.35-10.47Q23.84-2.09 19.43 4.64L19.43 4.64Q18.85 4.06 17.89 3.33Q16.94 2.61 16.12 2.26L16.12 2.26Q19.14-2.15 20.59-7.42Q22.04-12.70 22.45-18.07Q22.85-23.43 22.85-27.96L22.85-27.96L22.85-46.23L52.90-46.23L52.90-33.64L26.80-33.64L26.80-29.64L55.04-29.64L55.04-26.22L39.79-26.22Q36.89-22.10 33.70-18.73L33.70-18.73L46.81-19.60Q45.07-21.87 43.21-23.72L43.21-23.72L46.17-25.11Q48.37-22.97 50.34-20.45Q52.32-17.92 53.36-15.83L53.36-15.83L50.17-14.21Q49.71-15.20 49.01-16.41L49.01-16.41Q46.23-16.18 43.91-16.01L43.91-16.01Q40.83-15.78 38.63-15.60L38.63-15.60L41.88-15.60L41.88-10.15L53.01-10.15L53.01-6.73L41.88-6.73Z" transform="translate(58 225.04) skewX(-14)" fill="#246fdd" stroke="#246fdd" stroke-width="0.097" data-glyph-w="58" data-glyph-h="58" data-glyph-ascender="51.04" data-glyph-descender="-6.96"></path><path d="M45.59-20.88L40.14-20.88L40.14-19.08L51.27-19.08L51.27-14.67Q49.30-12.59 47.27-10.88Q45.24-9.16 43.09-7.77L43.09-7.77Q45.12-7.13 47.36-6.67Q49.59-6.21 52.14-5.86L52.14-5.86L52.14 0.06Q47.97-0.46 43.94-1.39Q39.90-2.32 35.90-3.94L35.90-3.94Q31.96-2.32 27.96-1.39Q23.95-0.46 19.84 0.06L19.84 0.06L19.84-6.03Q22.27-6.38 24.39-6.84Q26.51-7.31 28.36-7.89L28.36-7.89Q26.62-9.05 24.94-10.38Q23.26-11.72 21.63-13.34L21.63-13.34L31.67-13.34Q32.60-12.64 33.52-12.06Q34.45-11.48 35.44-10.96L35.44-10.96Q38.16-12.47 40.95-14.67L40.95-14.67L20.65-14.67L20.65-19.08L32.48-19.08L32.48-20.88L20.47-20.88L20.47-25.69L20.47-35.15L20.47-40.37L30.80-41.30L30.80-36.08L28.01-35.84L28.01-33.52L30.45-33.52L30.45-28.59L28.01-28.59L28.01-25.69L32.48-25.69L32.48-41.82L40.14-41.82L40.14-25.69L42.75-25.69Q43.50-25.69 44.05-26.22Q44.60-26.74 44.60-27.49L44.60-27.49L44.60-28.59L42.28-28.59L42.28-33.52L44.60-33.52L44.60-36.13L41.88-36.13L41.88-41.06L44.60-41.06L49.71-41.06L52.14-41.06L52.14-27.26Q52.14-25.93 51.62-24.77Q51.10-23.61 50.20-22.74Q49.30-21.87 48.11-21.37Q46.92-20.88 45.59-20.88L45.59-20.88ZM3.42-4.93L5.22-4.93Q5.80-4.93 6.18-5.31Q6.55-5.68 6.55-6.26L6.55-6.26L6.55-10.15L1.22-10.15L6.55-20.88L6.55-32.89L1.28-32.89L1.28-38.63L6.55-38.63L6.55-41.82L14.62-41.82L14.62-38.63L19.26-38.63L19.26-32.89L14.62-32.89L14.62-27.96L18.79-27.96L14.62-19.43L14.62-5.05Q14.62-2.90 13.11-1.42Q11.60 0.06 9.45 0.06L9.45 0.06L1.16 0.06L3.42-4.93Z" transform="translate(116 225.04) skewX(-14)" fill="#246fdd" stroke="#246fdd" stroke-width="0.097" data-glyph-w="53.36" data-glyph-h="58" data-glyph-ascender="49.822" data-glyph-descender="-8.178"></path><path d="M51.68-15.49L51.68-6.32Q51.68-4.99 51.19-3.83Q50.69-2.67 49.82-1.83Q48.95-0.99 47.79-0.49Q46.63 0 45.30 0L45.30 0L27.90 0L27.90-2.90L27.90-4.87L27.90-15.49L27.90-20.36L35.79-20.36L43.56-20.36L51.68-20.36L51.68-15.49ZM35.79-4.87L41.70-4.87Q42.51-4.87 43.04-5.39Q43.56-5.92 43.56-6.67L43.56-6.67L43.56-15.49L35.79-15.49L35.79-4.87ZM52.14-27.49L52.14-22.45L27.43-22.45L27.43-27.49L37.06-27.49L37.06-33.35L34.86-33.35L34.34-33.35L27.61-33.35L28.71-40.89L35.90-40.89L35.55-38.45L37.06-38.45L37.06-41.76L44.95-41.76L44.95-38.45L51.68-38.45L51.68-33.35L44.95-33.35L44.95-27.49L52.14-27.49ZM26.51-34.22L26.51-6.38Q26.51-5.05 25.98-3.89Q25.46-2.73 24.56-1.86Q23.66-0.99 22.48-0.49Q21.29 0 19.89 0L19.89 0L1.74 0L1.74-34.22L9.11-34.22L9.11-37.12L1.16-37.12L1.16-41.82L9.11-41.82L13.51-41.82L15.08-41.82L19.20-41.82L27.14-41.82L27.14-37.12L19.20-37.12L19.20-34.22L26.51-34.22ZM13.51-18.27L10.85-13.69L7.02-13.69L7.02-11.48L20.53-11.48L20.53-15.49L20.18-13.69L19.31-13.69Q16.99-13.69 16.04-14.70Q15.08-15.72 15.08-17.98L15.08-17.98L15.08-29.58L13.51-29.58L13.51-18.27ZM20.53-29.58L19.20-29.58L19.20-18.56Q19.20-18.10 19.43-17.81Q19.66-17.52 20.01-17.52L20.01-17.52L20.53-17.52L20.53-29.58ZM13.51-37.12L13.51-34.22L15.08-34.22L15.08-37.12L13.51-37.12ZM9.11-29.58L7.02-29.58L7.02-14.67L9.11-18.27L9.11-29.58ZM7.02-4.41L18.50-4.41Q19.31-4.41 19.92-4.93Q20.53-5.45 20.53-6.26L20.53-6.26L20.53-7.08L7.02-7.08L7.02-4.41Z" transform="translate(169.36 225.04) skewX(-14)" fill="#246fdd" stroke="#246fdd" stroke-width="0.097" data-glyph-w="53.36" data-glyph-h="58" data-glyph-ascender="49.822" data-glyph-descender="-8.178"></path></g></svg></g>
        </g><g id="shape_KGTd7uuhMV" ref="shape_KGTd7uuhMV" key="shape_KGTd7uuhMV" transform="translate(247.24821472167997,278.37664794922) rotate(0,129.63989257812,92.274169921875) scale(1,1)" style="cursor:move;display:inline;opacity:1;" filter="">
            <g style="display:inline"><svg xmlns="http://www.w3.org/2000/svg" version="1.1" xmlns:xlink="http://www.w3.org/1999/xlink" width="209" height="176.89453125" viewBox="0 0 209 176.89453125" preserveAspectRatio="none" data-parent="shape_KGTd7uuhMV"><rect fill="rgba(0,0,0,0)" width="109" height="25" x="25" y="75.947265625"></rect><g data-width="108.45947265625" transform="translate(25, 0)"><path d="M9.77-20.63Q13.50-20.63 16.15-17.98L16.15-17.98Q18.79-15.33 18.79-11.60L18.79-11.60Q18.79-7.85 16.15-5.21L16.15-5.21Q13.50-2.56 9.77-2.56L9.77-2.56Q6.02-2.56 3.38-5.21L3.38-5.21Q0.73-7.85 0.73-11.60L0.73-11.60Q0.73-15.33 3.38-17.98L3.38-17.98Q6.02-20.63 9.77-20.63L9.77-20.63ZM9.77-18.75L9.77-18.75Q6.80-18.75 4.70-16.66L4.70-16.66Q2.60-14.56 2.60-11.60L2.60-11.60Q2.60-8.63 4.70-6.53L4.70-6.53Q6.80-4.43 9.77-4.43L9.77-4.43Q12.73-4.43 14.83-6.53L14.83-6.53Q16.92-8.63 16.92-11.60L16.92-11.60Q16.92-14.56 14.83-16.66L14.83-16.66Q12.73-18.75 9.77-18.75Z" transform="translate(0 95.947265625) skewX(0)" fill="rgb(36, 111, 221)" stroke="rgb(36, 111, 221)" stroke-width="0.042" data-glyph-w="19.51904296875" data-glyph-h="26.0498046875" data-glyph-ascender="20.947265625" data-glyph-descender="-5.1025390625"></path><path d="M9.77-20.63Q13.50-20.63 16.15-17.98L16.15-17.98Q18.79-15.33 18.79-11.60L18.79-11.60Q18.79-7.85 16.15-5.21L16.15-5.21Q13.50-2.56 9.77-2.56L9.77-2.56Q6.02-2.56 3.38-5.21L3.38-5.21Q0.73-7.85 0.73-11.60L0.73-11.60Q0.73-15.33 3.38-17.98L3.38-17.98Q6.02-20.63 9.77-20.63L9.77-20.63ZM9.77-18.75L9.77-18.75Q6.80-18.75 4.70-16.66L4.70-16.66Q2.60-14.56 2.60-11.60L2.60-11.60Q2.60-8.63 4.70-6.53L4.70-6.53Q6.80-4.43 9.77-4.43L9.77-4.43Q12.73-4.43 14.83-6.53L14.83-6.53Q16.92-8.63 16.92-11.60L16.92-11.60Q16.92-14.56 14.83-16.66L14.83-16.66Q12.73-18.75 9.77-18.75Z" transform="translate(19.51904296875 95.947265625) skewX(0)" fill="rgb(36, 111, 221)" stroke="rgb(36, 111, 221)" stroke-width="0.042" data-glyph-w="19.51904296875" data-glyph-h="26.0498046875" data-glyph-ascender="20.947265625" data-glyph-descender="-5.1025390625"></path><path d="M7.90-18.75Q9.86-18.75 11.22-17.80L11.22-17.80Q12.56-16.85 12.56-15.49L12.56-15.49L14.43-15.49Q14.43-17.63 12.56-19.12L12.56-19.12Q10.67-20.63 7.90-20.63L7.90-20.63Q5.11-20.63 3.27-19.32L3.27-19.32Q1.35-17.97 1.35-15.80L1.35-15.80Q1.35-13.48 3.20-12.34L3.20-12.34Q4.44-11.58 7.28-11.10L7.28-11.10Q10.46-10.53 11.34-10.17L11.34-10.17Q13.18-9.41 13.18-7.70L13.18-7.70Q13.18-6.23 11.63-5.31L11.63-5.31Q10.16-4.43 7.90-4.43L7.90-4.43Q5.59-4.43 4.08-5.62L4.08-5.62Q2.60-6.77 2.60-8.48L2.60-8.48L0.73-8.48Q0.73-5.99 2.73-4.30L2.73-4.30Q4.79-2.56 7.90-2.56L7.90-2.56Q10.97-2.56 12.95-3.91L12.95-3.91Q15.05-5.32 15.05-7.70L15.05-7.70Q15.05-10.10 13.21-11.28L13.21-11.28Q11.94-12.10 9.14-12.60L9.14-12.60Q5.83-13.20 5.08-13.49L5.08-13.49Q3.22-14.21 3.22-15.80L3.22-15.80Q3.22-17.16 4.59-17.98L4.59-17.98Q5.90-18.75 7.90-18.75L7.90-18.75Z" transform="translate(39.0380859375 95.947265625) skewX(0)" fill="rgb(36, 111, 221)" stroke="rgb(36, 111, 221)" stroke-width="0.042" data-glyph-w="15.78369140625" data-glyph-h="26.0498046875" data-glyph-ascender="20.947265625" data-glyph-descender="-5.1025390625"></path><path d="M12.65-2.88L3.09-10.93L3.09-2.88L1.22-2.88L1.22-20.31L3.09-20.31L3.09-12.26L12.65-20.31L15.54-20.31L5.19-11.60L15.54-2.88L12.65-2.88Z" transform="translate(54.82177734375 95.947265625) skewX(0)" fill="rgb(36, 111, 221)" stroke="rgb(36, 111, 221)" stroke-width="0.042" data-glyph-w="15.78369140625" data-glyph-h="26.0498046875" data-glyph-ascender="20.947265625" data-glyph-descender="-5.1025390625"></path><path d="M1.22-2.88L1.22-4.75L3.09-4.75L3.09-2.88L1.22-2.88Z" transform="translate(70.60546875 95.947265625) skewX(0)" fill="rgb(36, 111, 221)" stroke="rgb(36, 111, 221)" stroke-width="0.042" data-glyph-w="4.30908203125" data-glyph-h="26.0498046875" data-glyph-ascender="20.947265625" data-glyph-descender="-5.1025390625"></path><path d="M9.77-2.56Q13.96-2.56 16.67-5.79L16.67-5.79L15.25-6.99Q13.10-4.43 9.77-4.43L9.77-4.43Q6.80-4.43 4.70-6.53L4.70-6.53Q2.60-8.63 2.60-11.60L2.60-11.60Q2.60-14.56 4.70-16.66L4.70-16.66Q6.80-18.75 9.77-18.75L9.77-18.75Q13.10-18.75 15.25-16.20L15.25-16.20L16.67-17.40Q13.96-20.63 9.77-20.63L9.77-20.63Q6.02-20.63 3.38-17.98L3.38-17.98Q0.73-15.33 0.73-11.60L0.73-11.60Q0.73-7.85 3.38-5.21L3.38-5.21Q6.02-2.56 9.77-2.56L9.77-2.56Z" transform="translate(74.91455078125 95.947265625) skewX(0)" fill="rgb(36, 111, 221)" stroke="rgb(36, 111, 221)" stroke-width="0.042" data-glyph-w="17.4072265625" data-glyph-h="26.0498046875" data-glyph-ascender="20.947265625" data-glyph-descender="-5.1025390625"></path><path d="M13.05-6.21L13.05-20.31L14.92-20.31L14.92-2.88L13.13-2.88L3.09-16.98L3.09-2.88L1.22-2.88L1.22-20.31L3.00-20.31L13.05-6.21Z" transform="translate(92.32177734375 95.947265625) skewX(0)" fill="rgb(36, 111, 221)" stroke="rgb(36, 111, 221)" stroke-width="0.042" data-glyph-w="16.1376953125" data-glyph-h="26.0498046875" data-glyph-ascender="20.947265625" data-glyph-descender="-5.1025390625"></path></g></svg></g>
        </g>
  </svg>